<svg xmlns="http://www.w3.org/2000/svg" width="152" height="56" viewBox="0 0 152 56">
  <g id="Group_51" data-name="Group 51" transform="translate(-46.3 -1941.6)">
    <path id="Path_25" data-name="Path 25" d="M8.887-16.119a6.463,6.463,0,0,1,5.246,2.236A9.169,9.169,0,0,1,16-7.811a10.524,10.524,0,0,1-.852,4.366A6.644,6.644,0,0,1,12.689-.515,6.9,6.9,0,0,1,8.857.527,6.508,6.508,0,0,1,3.6-1.708,9.12,9.12,0,0,1,1.71-7.781a10.524,10.524,0,0,1,.852-4.366,6.644,6.644,0,0,1,2.463-2.931A6.958,6.958,0,0,1,8.887-16.119Zm0,2.236q-4.166,0-4.166,6.1,0,6.073,4.136,6.073t4.136-6.1Q12.993-13.883,8.887-13.883ZM32.548.165h-2.4l-.213-2.477a6.084,6.084,0,0,1-2.1,2.16,5.725,5.725,0,0,1-2.889.68A4.276,4.276,0,0,1,21.66-.741a5.067,5.067,0,0,1-1.186-3.6v-11.42h2.8V-4.639a3.593,3.593,0,0,0,.578,2.311,2.349,2.349,0,0,0,1.886.68q2.342,0,4.014-2.749v-11.36h2.8ZM45.291-16.119a6.55,6.55,0,0,1,1.581.181l-.517,2.719a5.8,5.8,0,0,0-1.4-.181,2.982,2.982,0,0,0-2.4,1.088,8.055,8.055,0,0,0-1.429,3.384V.165h-2.8V-15.756h2.4L41-12.524a6.037,6.037,0,0,1,1.733-2.689A3.885,3.885,0,0,1,45.291-16.119ZM48-8.113v-2.356H56.6v2.356ZM68.86-16.119a4.488,4.488,0,0,1,3.421,1.3,4.971,4.971,0,0,1,1.232,3.565V.165h-2.8V-10.862a3.455,3.455,0,0,0-.654-2.387,2.485,2.485,0,0,0-1.9-.695,3.619,3.619,0,0,0-2.22.725,7.7,7.7,0,0,0-1.825,2.054V.165h-2.8v-22.3l2.8-.3v8.882A5.681,5.681,0,0,1,68.86-16.119Zm13.077.363V.165h-2.8V-15.756ZM80.508-23.4a1.94,1.94,0,0,1,1.429.544,1.838,1.838,0,0,1,.547,1.36,1.789,1.789,0,0,1-.547,1.344,1.971,1.971,0,0,1-1.429.529,1.931,1.931,0,0,1-1.4-.529,1.789,1.789,0,0,1-.547-1.344,1.838,1.838,0,0,1,.547-1.36A1.9,1.9,0,0,1,80.508-23.4Zm11.557,7.281a8.976,8.976,0,0,1,2.95.453,8.9,8.9,0,0,1,2.494,1.36l-1.186,1.752a9.705,9.705,0,0,0-2.083-1.027,6.493,6.493,0,0,0-2.083-.332A3.682,3.682,0,0,0,90-13.355a1.771,1.771,0,0,0-.791,1.526,1.765,1.765,0,0,0,.745,1.511,8.681,8.681,0,0,0,2.691,1.057,9.644,9.644,0,0,1,4,1.813,3.943,3.943,0,0,1,1.323,3.142,4.065,4.065,0,0,1-1.84,3.6A7.847,7.847,0,0,1,91.639.527a8.9,8.9,0,0,1-6.052-2.085l1.49-1.692a7.291,7.291,0,0,0,4.5,1.541,4.3,4.3,0,0,0,2.509-.65,2.047,2.047,0,0,0,.928-1.767,2.32,2.32,0,0,0-.335-1.314,2.713,2.713,0,0,0-1.156-.876,15.93,15.93,0,0,0-2.4-.8,8.22,8.22,0,0,1-3.7-1.782,3.807,3.807,0,0,1-1.14-2.84,3.707,3.707,0,0,1,.745-2.251A4.83,4.83,0,0,1,89.1-15.56,7.55,7.55,0,0,1,92.065-16.119ZM110.008-.56A6.183,6.183,0,0,1,106.419.527a4.248,4.248,0,0,1-3.178-1.163A4.616,4.616,0,0,1,102.1-4v-9.607H99.3v-2.145h2.8v-3.6l2.8-.332v3.927h3.8l-.3,2.145h-3.5v9.486a2.914,2.914,0,0,0,.441,1.8,1.77,1.77,0,0,0,1.475.559,4.61,4.61,0,0,0,2.129-.634Zm8.455-15.559a6.463,6.463,0,0,1,5.246,2.236,9.169,9.169,0,0,1,1.87,6.073,10.524,10.524,0,0,1-.852,4.366,6.644,6.644,0,0,1-2.463,2.931A6.9,6.9,0,0,1,118.432.527a6.508,6.508,0,0,1-5.261-2.236,9.12,9.12,0,0,1-1.886-6.073,10.524,10.524,0,0,1,.852-4.366,6.644,6.644,0,0,1,2.463-2.931A6.958,6.958,0,0,1,118.462-16.119Zm0,2.236q-4.166,0-4.166,6.1,0,6.073,4.136,6.073t4.136-6.1Q122.568-13.883,118.462-13.883Zm18.7-2.236a6.55,6.55,0,0,1,1.581.181l-.517,2.719a5.8,5.8,0,0,0-1.4-.181,2.982,2.982,0,0,0-2.4,1.088A8.055,8.055,0,0,0,133-8.929V.165h-2.8V-15.756h2.4l.274,3.233a6.037,6.037,0,0,1,1.733-2.689A3.885,3.885,0,0,1,137.166-16.119ZM148.357.256a10.728,10.728,0,0,1-2.631,4.4,7.971,7.971,0,0,1-4.82,1.949l-.3-2.175a8.277,8.277,0,0,0,2.524-.785,4.339,4.339,0,0,0,1.505-1.314,9.176,9.176,0,0,0,1.049-2.16h-.943l-5.383-15.921h2.98l4.288,13.9,4.2-13.9h2.889Z" transform="translate(44.59 1965)" fill="#cb1515"/>
    <path id="Path_24" data-name="Path 24" d="M8.222-20.248a2.425,2.425,0,0,0-1.8.561,2.434,2.434,0,0,0-.54,1.742v2.212H9.723l-.3,2.152H5.882V.236H3.121V-13.582H.3v-2.152H3.121v-2.182a4.4,4.4,0,0,1,1.305-3.318,5.039,5.039,0,0,1,3.646-1.258,8.656,8.656,0,0,1,1.936.2,10.994,10.994,0,0,1,1.845.621l-.87,2.03A6.679,6.679,0,0,0,8.222-20.248ZM18.545-16.1a6.33,6.33,0,0,1,5.176,2.242,9.3,9.3,0,0,1,1.845,6.091,10.707,10.707,0,0,1-.84,4.379A6.638,6.638,0,0,1,22.3-.445,6.727,6.727,0,0,1,18.515.6a6.374,6.374,0,0,1-5.191-2.242,9.249,9.249,0,0,1-1.861-6.091,10.707,10.707,0,0,1,.84-4.379,6.638,6.638,0,0,1,2.431-2.939A6.782,6.782,0,0,1,18.545-16.1Zm0,2.242q-4.111,0-4.111,6.121,0,6.091,4.081,6.091T22.6-7.764Q22.6-13.855,18.545-13.855ZM41.891.236H39.521l-.21-2.485A6.056,6.056,0,0,1,37.24-.082,5.575,5.575,0,0,1,34.389.6,4.183,4.183,0,0,1,31.148-.673a5.135,5.135,0,0,1-1.17-3.606V-15.733h2.761V-4.582a3.649,3.649,0,0,0,.57,2.318,2.3,2.3,0,0,0,1.861.682q2.311,0,3.961-2.758V-15.733h2.761ZM55.035-16.1a4.39,4.39,0,0,1,3.376,1.3,5.036,5.036,0,0,1,1.215,3.576V.236H56.865V-10.824a3.566,3.566,0,0,0-.63-2.394,2.381,2.381,0,0,0-1.861-.7,3.577,3.577,0,0,0-2.221.727,7.544,7.544,0,0,0-1.8,2.091V.236H47.593v-15.97h2.371l.24,2.364a6.276,6.276,0,0,1,2.086-2A5.346,5.346,0,0,1,55.035-16.1Zm22.386-6.061V.236H74.99l-.27-2.212A5.746,5.746,0,0,1,72.77-.082,5.091,5.091,0,0,1,70.159.6a5.071,5.071,0,0,1-4.4-2.242,10.308,10.308,0,0,1-1.575-6.03,11.864,11.864,0,0,1,.75-4.364A6.752,6.752,0,0,1,67.1-15.021,5.289,5.289,0,0,1,70.4-16.1a5.652,5.652,0,0,1,4.261,1.97v-8.364ZM70.759-1.612A3.849,3.849,0,0,0,72.92-2.2a6.774,6.774,0,0,0,1.74-1.773v-7.818a6,6,0,0,0-1.665-1.561,3.808,3.808,0,0,0-2-.53,3.2,3.2,0,0,0-2.836,1.545,8.53,8.53,0,0,0-1.005,4.606,8.992,8.992,0,0,0,.93,4.606A2.959,2.959,0,0,0,70.759-1.612ZM93.775-3.491a2.522,2.522,0,0,0,.33,1.439,2.013,2.013,0,0,0,.99.712L94.465.6a4.194,4.194,0,0,1-1.981-.7,3.19,3.19,0,0,1-1.11-1.7A5.289,5.289,0,0,1,86.663.6,5.024,5.024,0,0,1,82.972-.733a4.681,4.681,0,0,1-1.35-3.485,4.6,4.6,0,0,1,1.815-3.909,8.433,8.433,0,0,1,5.146-1.364h2.431v-1.182A3.124,3.124,0,0,0,90.2-13.1a3.642,3.642,0,0,0-2.491-.727,13.812,13.812,0,0,0-4.261.848l-.69-2.03A15.78,15.78,0,0,1,88.224-16.1a5.673,5.673,0,0,1,4.171,1.379,5.305,5.305,0,0,1,1.38,3.924Zm-6.482,2a4.12,4.12,0,0,0,3.721-2.485V-7.642H88.944q-4.381,0-4.381,3.273a3.015,3.015,0,0,0,.69,2.152A2.683,2.683,0,0,0,87.293-1.491Zm20.135,1A6.031,6.031,0,0,1,103.888.6a4.153,4.153,0,0,1-3.136-1.167,4.677,4.677,0,0,1-1.125-3.379v-9.636H96.866v-2.152h2.761v-3.606l2.761-.333v3.939h3.751l-.3,2.152h-3.451v9.515a2.96,2.96,0,0,0,.435,1.8,1.732,1.732,0,0,0,1.455.561,4.494,4.494,0,0,0,2.1-.636Zm5.612-15.242V.236H110.28v-15.97ZM111.63-23.4a1.9,1.9,0,0,1,1.41.545,1.86,1.86,0,0,1,.54,1.364,1.809,1.809,0,0,1-.54,1.348,1.927,1.927,0,0,1-1.41.53,1.888,1.888,0,0,1-1.38-.53,1.809,1.809,0,0,1-.54-1.348,1.86,1.86,0,0,1,.54-1.364A1.86,1.86,0,0,1,111.63-23.4Zm13.054,7.3a6.33,6.33,0,0,1,5.176,2.242,9.3,9.3,0,0,1,1.846,6.091,10.707,10.707,0,0,1-.84,4.379,6.638,6.638,0,0,1-2.431,2.939A6.727,6.727,0,0,1,124.654.6a6.374,6.374,0,0,1-5.191-2.242A9.249,9.249,0,0,1,117.6-7.733a10.707,10.707,0,0,1,.84-4.379,6.638,6.638,0,0,1,2.431-2.939A6.782,6.782,0,0,1,124.684-16.1Zm0,2.242q-4.111,0-4.111,6.121,0,6.091,4.081,6.091t4.081-6.121Q128.735-13.855,124.684-13.855ZM143.709-16.1a4.39,4.39,0,0,1,3.376,1.3,5.036,5.036,0,0,1,1.215,3.576V.236h-2.761V-10.824a3.566,3.566,0,0,0-.63-2.394,2.381,2.381,0,0,0-1.861-.7,3.577,3.577,0,0,0-2.221.727,7.544,7.544,0,0,0-1.8,2.091V.236h-2.761v-15.97h2.371l.24,2.364a6.276,6.276,0,0,1,2.086-2A5.346,5.346,0,0,1,143.709-16.1Z" transform="translate(46 1997)" fill="#fff"/>
  </g>
</svg>
